<?xml version="1.0" standalone="no"?>
<!DOCTYPE svg PUBLIC "-//W3C//DTD SVG 20010904//EN"
 "http://www.w3.org/TR/2001/REC-SVG-20010904/DTD/svg10.dtd">
<svg version="1.0" xmlns="http://www.w3.org/2000/svg"
 width="260.000000pt" height="260.000000pt" viewBox="0 0 260.000000 260.000000"
 preserveAspectRatio="xMidYMid meet">
<metadata>
Created by potrace 1.11, written by Peter Selinger 2001-2013
</metadata>
<g transform="translate(0.000000,260.000000) scale(0.100000,-0.100000)"
fill="#000000" stroke="none">
<path d="M0 1300 l0 -1300 1300 0 1300 0 0 1300 0 1300 -1300 0 -1300 0 0
-1300z m1664 815 c139 -36 241 -117 299 -234 31 -63 32 -71 32 -186 0 -112 -2
-124 -29 -176 -35 -69 -107 -143 -170 -173 l-47 -23 65 -32 c203 -100 283
-367 175 -587 -35 -71 -120 -159 -187 -193 -94 -48 -131 -51 -699 -51 l-533 0
0 835 0 835 518 0 c429 0 528 -3 576 -15z"/>
<path d="M1000 1625 l0 -135 223 0 c196 0 227 3 264 19 48 22 73 62 73 116 0
54 -25 94 -73 116 -37 16 -68 19 -264 19 l-223 0 0 -135z"/>
<path d="M1000 974 l0 -145 248 3 c221 3 250 5 278 22 44 27 64 65 64 125 0
44 -5 56 -32 87 -21 22 -48 38 -73 44 -22 5 -140 10 -262 10 l-223 0 0 -146z"/>
</g>
</svg>
