<?xml version="1.0" standalone="no"?>
<!DOCTYPE svg PUBLIC "-//W3C//DTD SVG 20010904//EN"
 "http://www.w3.org/TR/2001/REC-SVG-20010904/DTD/svg10.dtd">
<svg version="1.0" xmlns="http://www.w3.org/2000/svg"
 width="973.000000pt" height="315.000000pt" viewBox="0 0 973.000000 315.000000"
 preserveAspectRatio="xMidYMid meet">

<g transform="translate(0.000000,315.000000) scale(0.100000,-0.100000)"
fill="#43413d" stroke="none">
<path d="M9120 3136 c-197 -54 -314 -231 -280 -425 15 -85 51 -151 117 -211
73 -66 145 -94 248 -94 148 0 271 77 337 211 29 59 32 75 32 152 0 65 -6 100
-23 142 -41 106 -142 194 -256 224 -70 18 -113 18 -175 1z"/>
<path d="M3644 2770 c-141 -26 -266 -92 -374 -200 -86 -86 -139 -171 -178
-285 l-27 -80 0 -810 0 -810 27 -80 c82 -240 276 -416 523 -476 78 -19 287
-16 370 5 254 65 450 262 515 520 19 76 20 112 20 838 0 858 2 833 -77 998
-39 80 -59 108 -132 180 -94 93 -175 142 -296 180 -80 25 -283 36 -371 20z
m257 -421 c48 -12 112 -60 149 -111 62 -85 61 -73 58 -864 -3 -663 -4 -722
-21 -758 -28 -62 -84 -124 -140 -154 -47 -24 -62 -27 -157 -27 -99 0 -108 2
-160 31 -63 36 -123 107 -140 168 -8 29 -10 255 -8 786 l3 745 27 46 c77 131
218 181 389 138z"/>
<path d="M10 1201 l0 -971 200 0 200 0 0 623 c0 343 3 627 6 630 4 3 39 -22
79 -56 86 -74 700 -608 870 -757 67 -58 204 -177 305 -265 102 -88 222 -193
268 -233 l82 -73 0 986 0 985 -205 0 -205 0 -2 -640 -3 -640 -176 153 c-97 83
-448 388 -780 677 -332 289 -612 531 -622 539 -16 13 -17 -36 -17 -958z"/>
<path d="M5560 1150 l0 -920 205 0 205 0 0 632 0 633 335 -335 335 -335 328
328 c180 180 330 327 335 327 4 0 7 -281 7 -625 l0 -625 205 0 205 0 0 920 0
920 -208 0 -207 0 -330 -330 c-181 -181 -334 -330 -340 -330 -5 0 -158 149
-340 330 l-330 330 -202 0 -203 0 0 -920z"/>
<path d="M8700 2036 l0 -35 58 -6 c88 -10 126 -23 178 -58 60 -40 84 -86 96
-186 14 -115 5 -1236 -10 -1282 -17 -51 -74 -113 -128 -138 -27 -13 -78 -25
-123 -29 l-76 -7 0 -35 0 -35 510 0 510 0 0 35 0 35 -77 6 c-93 8 -174 43
-212 93 -50 66 -51 84 -51 751 0 707 -2 689 75 766 51 51 106 73 208 84 l62 7
0 34 0 34 -510 0 -510 0 0 -34z"/>
<path d="M2381 604 c-158 -79 -156 -317 4 -394 37 -18 58 -21 115 -18 89 5
141 39 183 118 25 48 28 63 24 113 -14 164 -178 254 -326 181z"/>
<path d="M4895 611 c-167 -77 -167 -326 -1 -405 48 -23 147 -21 194 3 168 87
162 334 -10 405 -50 21 -134 20 -183 -3z"/>
<path d="M8147 620 c-77 -23 -147 -123 -147 -209 0 -58 37 -138 78 -173 70
-59 197 -65 272 -13 144 100 120 322 -42 390 -40 16 -115 19 -161 5z"/>
</g>
</svg>
