<svg version="1.1" xmlns="http://www.w3.org/2000/svg" xmlns:xlink="http://www.w3.org/1999/xlink" x="0px" y="0px" viewBox="0 0 21 17" style="enable-background:new 0 0 21 17;" xml:space="preserve"><path fill="rgba(66, 65, 60, 1);" d="M17.5,7.6L14,10.9l0.8,4.7c0.2,1.1-0.5,1.6-1.5,1.1L9,14.4l-4.3,2.2c-1,0.5-1.7,0-1.5-1.1L4,10.9L0.5,7.6C-0.3,6.8-0.1,6,1.1,5.8l4.8-0.7l2.2-4.3c0.5-1,1.3-1,1.9,0l2.2,4.3l4.8,0.7C18.1,6,18.3,6.8,17.5,7.6L17.5,7.6z M13.8,7.4L10.9,7L9.6,4.5c-0.3-0.6-0.8-0.6-1.1,0L7.1,7L4.2,7.4C3.5,7.5,3.4,8,3.9,8.4l2.1,2l-0.5,2.8c-0.1,0.7,0.3,0.9,0.9,0.6L9,12.5l2.6,1.3c0.6,0.3,1,0,0.9-0.6L12,10.4l2.1-2C14.6,8,14.5,7.5,13.8,7.4L13.8,7.4z"/></svg>